<?xml version="1.0" encoding="UTF-8"?>
<svg id="Layer_1" xmlns="http://www.w3.org/2000/svg" viewBox="0 0 320.78 76.91">
  <defs>
    <style>
      .cls-1 {
        fill: #004322;
      }
    </style>
  </defs>
  <g>
    <path class="cls-1" d="M144.87,45.04c0,1.55-.31,3-.92,4.35-.62,1.36-1.51,2.54-2.67,3.54-1.16,1-2.57,1.79-4.22,2.38-1.65.58-3.54.87-5.65.87-1.93,0-3.87-.21-5.8-.63-1.93-.42-3.73-1.03-5.38-1.85l1.74-6.59c1.23.6,2.62,1.12,4.17,1.55,1.55.44,3.22.66,5.01.66,1.48,0,2.69-.28,3.64-.82.95-.55,1.43-1.43,1.43-2.67,0-.88-.41-1.68-1.24-2.4-.82-.72-2.33-1.49-4.51-2.3-3.45-1.3-5.96-2.79-7.54-4.46-1.58-1.67-2.37-3.81-2.37-6.41,0-3.41,1.12-6.01,3.35-7.81,2.23-1.8,5.32-2.69,9.26-2.69,2,0,3.92.22,5.75.66,1.83.44,3.38,1.01,4.64,1.72l-1.48,6.48c-1.23-.6-2.58-1.08-4.04-1.45-1.46-.37-2.96-.56-4.51-.56-1.3,0-2.35.22-3.14.66-.79.44-1.19,1.19-1.19,2.24,0,.49.07.91.21,1.27s.4.69.76,1c.37.32.89.63,1.56.95s1.51.68,2.53,1.1c1.48.6,2.87,1.23,4.17,1.9,1.3.67,2.43,1.45,3.38,2.32.95.88,1.7,1.88,2.25,3.01.54,1.13.82,2.45.82,3.96Z"/>
    <path class="cls-1" d="M174.62,20.4v6.86h-9.44v28.28h-8.65v-28.28h-9.44v-6.86h27.54Z"/>
    <path class="cls-1" d="M178.79,20.4h21.89v6.86h-13.24v7.07h12.61v6.86h-12.61v7.49h13.4v6.86h-22.05V20.4Z"/>
    <path class="cls-1" d="M232.22,31.85c0,1.86-.4,3.54-1.21,5.01-.81,1.48-1.93,2.72-3.35,3.72-1.43,1-3.1,1.77-5.04,2.3-1.94.53-4.03.79-6.28.79h-.9v11.87h-8.65V20.4h10.13c2.21,0,4.26.23,6.15.69,1.88.46,3.5,1.15,4.85,2.08,1.36.93,2.41,2.12,3.16,3.56.76,1.45,1.14,3.15,1.14,5.12ZM223.89,31.9c0-3.23-2.31-4.86-6.91-4.86h-1.53v9.97h1.43c2.29,0,4.02-.45,5.22-1.37,1.2-.91,1.79-2.16,1.79-3.74Z"/>
    <path class="cls-1" d="M235.49,45.25v-6.75h14.46v6.75h-14.46Z"/>
    <path class="cls-1" d="M277.01,20.4h8.65v22.47c0,4.15-1.31,7.4-3.93,9.76-2.62,2.36-6.27,3.54-10.94,3.54s-8.33-1.18-10.95-3.54c-2.62-2.36-3.93-5.61-3.93-9.76v-22.47h8.65v22.74c0,2,.53,3.53,1.58,4.59,1.05,1.05,2.6,1.58,4.65,1.58s3.59-.53,4.64-1.58c1.05-1.06,1.58-2.59,1.58-4.59v-22.74Z"/>
    <path class="cls-1" d="M317.84,31.85c0,1.86-.4,3.54-1.21,5.01-.81,1.48-1.93,2.72-3.35,3.72-1.43,1-3.1,1.77-5.04,2.3-1.94.53-4.03.79-6.28.79h-.9v11.87h-8.65V20.4h10.13c2.21,0,4.26.23,6.15.69,1.88.46,3.5,1.15,4.85,2.08,1.36.93,2.41,2.12,3.16,3.56.76,1.45,1.14,3.15,1.14,5.12ZM309.5,31.9c0-3.23-2.31-4.86-6.91-4.86h-1.53v9.97h1.43c2.29,0,4.02-.45,5.22-1.37,1.2-.91,1.79-2.16,1.79-3.74Z"/>
  </g>
  <path class="cls-1" d="M83.83,6.1v32.35c0,2.24-1.81,4.04-4.04,4.04h-32.35c-2.23,0-4.04,1.81-4.04,4.04v24.27c0,2.24-1.81,4.04-4.04,4.04H6.99c-2.23,0-4.04-1.81-4.04-4.04v-32.35c0-2.24,1.82-4.04,4.04-4.04h32.35c2.24,0,4.04-1.81,4.04-4.04V6.1c0-2.24,1.82-4.04,4.04-4.04h32.35c2.24,0,4.04,1.81,4.04,4.04Z"/>
</svg>