<?xml version="1.0" encoding="UTF-8"?>
<svg id="Layer_1" xmlns="http://www.w3.org/2000/svg" viewBox="0 0 320.78 145.08">
  <defs>
    <style>
      .cls-1 {
        fill: #004322;
      }
    </style>
  </defs>
  <g>
    <path class="cls-1" d="M44.22,46.84c0,2.67-.53,5.18-1.59,7.52-1.06,2.34-2.6,4.37-4.6,6.1s-4.43,3.1-7.29,4.1c-2.86,1-6.1,1.5-9.75,1.5-3.34,0-6.68-.36-10.02-1.09-3.34-.73-6.44-1.79-9.29-3.19l3.01-11.39c2.12,1.03,4.52,1.93,7.2,2.69,2.67.76,5.56,1.14,8.66,1.14,2.55,0,4.65-.47,6.29-1.41,1.64-.94,2.46-2.47,2.46-4.6,0-1.52-.71-2.9-2.14-4.15-1.43-1.24-4.02-2.57-7.79-3.96-5.95-2.25-10.29-4.81-13.03-7.7-2.73-2.88-4.1-6.57-4.1-11.07,0-5.89,1.93-10.39,5.79-13.48,3.86-3.1,9.19-4.65,15.99-4.65,3.46,0,6.77.38,9.93,1.14,3.16.76,5.83,1.75,8.02,2.96l-2.55,11.21c-2.13-1.03-4.45-1.87-6.97-2.51-2.52-.64-5.12-.96-7.79-.96-2.25,0-4.05.38-5.42,1.14-1.37.76-2.05,2.05-2.05,3.87,0,.85.12,1.58.36,2.19.24.61.68,1.18,1.32,1.73.64.55,1.53,1.09,2.69,1.64,1.15.55,2.61,1.18,4.37,1.91,2.55,1.03,4.95,2.13,7.2,3.28,2.25,1.15,4.19,2.49,5.83,4.01,1.64,1.52,2.93,3.25,3.87,5.19.94,1.94,1.41,4.22,1.41,6.83Z"/>
    <path class="cls-1" d="M95.6,4.29v11.84h-16.31v48.83h-14.94V16.13h-16.31V4.29h47.56Z"/>
    <path class="cls-1" d="M102.8,4.29h37.81v11.84h-22.87v12.21h21.77v11.84h-21.77v12.94h23.14v11.84h-38.08V4.29Z"/>
    <path class="cls-1" d="M195.09,24.06c0,3.22-.7,6.1-2.1,8.66-1.4,2.55-3.33,4.69-5.79,6.42s-5.36,3.05-8.7,3.96c-3.34.91-6.96,1.37-10.84,1.37h-1.55v20.5h-14.94V4.29h17.49c3.83,0,7.36.4,10.61,1.18,3.25.79,6.04,1.99,8.38,3.6,2.34,1.61,4.16,3.66,5.47,6.15,1.31,2.49,1.96,5.44,1.96,8.84ZM180.69,24.15c0-5.59-3.98-8.38-11.94-8.38h-2.64v17.22h2.46c3.95,0,6.95-.79,9.02-2.37,2.06-1.58,3.1-3.74,3.1-6.47Z"/>
  </g>
  <g>
    <path class="cls-1" d="M40.67,80.11h14.94v38.81c0,7.17-2.26,12.79-6.79,16.85-4.53,4.07-10.83,6.1-18.9,6.1s-14.38-2.03-18.9-6.1c-4.53-4.07-6.79-9.69-6.79-16.85v-38.81h14.94v39.27c0,3.46.91,6.1,2.73,7.93,1.82,1.82,4.49,2.73,8.02,2.73s6.2-.91,8.02-2.73c1.82-1.82,2.73-4.46,2.73-7.93v-39.27Z"/>
    <path class="cls-1" d="M111.18,99.88c0,3.22-.7,6.1-2.1,8.66-1.4,2.55-3.33,4.69-5.79,6.42s-5.36,3.05-8.7,3.96c-3.34.91-6.96,1.37-10.84,1.37h-1.55v20.5h-14.94v-60.68h17.49c3.83,0,7.36.4,10.61,1.18,3.25.79,6.04,1.99,8.38,3.6,2.34,1.61,4.16,3.66,5.47,6.15,1.31,2.49,1.96,5.44,1.96,8.84ZM96.79,99.97c0-5.59-3.98-8.38-11.94-8.38h-2.64v17.22h2.46c3.95,0,6.95-.79,9.02-2.37,2.06-1.58,3.1-3.74,3.1-6.47Z"/>
  </g>
  <path class="cls-1" d="M319.11,10.67v31.49c0,2.9-2.34,5.25-5.25,5.25h-31.49c-2.9,0-5.25,2.34-5.25,5.25v20.99c0,2.9-2.34,5.25-5.25,5.25h-31.49c-2.9,0-5.25,2.34-5.25,5.25v20.99c0,2.9-2.34,5.25-5.25,5.25h-31.49c-2.9,0-5.25,2.34-5.25,5.25v20.99c0,2.9-2.34,5.25-5.25,5.25h-31.49c-2.9,0-5.25-2.34-5.25-5.25v-31.49c0-2.9,2.34-5.25,5.25-5.25h31.49c2.9,0,5.25-2.34,5.25-5.25v-20.99c0-2.9,2.34-5.25,5.25-5.25h31.49c2.9,0,5.25-2.34,5.25-5.25v-20.99c0-2.9,2.34-5.25,5.25-5.25h31.49c2.9,0,5.25-2.34,5.25-5.25V10.67c0-2.9,2.34-5.25,5.25-5.25h31.49c2.9,0,5.25,2.34,5.25,5.25Z"/>
</svg>